<svg xmlns="http://www.w3.org/2000/svg" viewBox="0 0 600 400" width="600" height="400">
  <defs>
    <linearGradient id="cellGradient" x1="0%" y1="0%" x2="100%" y2="100%">
      <stop offset="0%" style="stop-color:rgb(255,100,100);stop-opacity:0.4" />
      <stop offset="100%" style="stop-color:rgb(255,0,0);stop-opacity:0.8" />
    </linearGradient>
  </defs>
  <!-- Grid Background -->
  <rect x="2.5" y="2.5" width="595" height="395" rx="40" ry="40" fill="black" stroke="gray" stroke-width="5"/>
  <!-- Column Numbers (Top) -->
  <text x="160" y="60" font-family="Arial" font-size="50" fill="grey" text-anchor="middle">1</text>
  <text x="330" y="60" font-family="Arial" font-size="50" fill="grey" text-anchor="middle">2</text>
  <text x="500" y="60" font-family="Arial" font-size="50" fill="grey" text-anchor="middle">3</text>
  <!-- Row Numbers (Left) -->
  <text x="40" y="140" font-family="Arial" font-size="50" fill="grey" text-anchor="middle">1</text>
  <text x="40" y="245" font-family="Arial" font-size="50" fill="grey" text-anchor="middle">2</text>
  <text x="40" y="350" font-family="Arial" font-size="50" fill="grey" text-anchor="middle">3</text>
  <!-- Grid Cells -->
  <g>
    <rect x="85" y="75" width="152" height="85" rx="15" ry="15" fill="url(#cellGradient)" stroke="grey" stroke-width="2"/>
    <rect x="255" y="75" width="152" height="85" rx="15" ry="15" fill="url(#cellGradient)" stroke="grey" stroke-width="2" />
    <rect x="425" y="75" width="152" height="85" rx="15" ry="15" fill="url(#cellGradient)" stroke="grey" stroke-width="2" />
  </g>
  <g>
    <rect x="85" y="180" width="152" height="85" rx="15" ry="15" fill="url(#cellGradient)" stroke="grey" stroke-width="2" />
    <rect x="255" y="180" width="152" height="85" rx="15" ry="15" fill="url(#cellGradient)" stroke="grey" stroke-width="2" />
    <rect x="425" y="180" width="152" height="85" rx="15" ry="15" fill="url(#cellGradient)" stroke="grey" stroke-width="2" />
  </g>
  <g>
    <rect x="85" y="285" width="152" height="85" rx="15" ry="15" fill="url(#cellGradient)" stroke="grey" stroke-width="2" />
    <rect x="255" y="285" width="152" height="85" rx="15" ry="15" fill="url(#cellGradient)" stroke="grey" stroke-width="2" />
    <rect x="425" y="285" width="152" height="85" rx="15" ry="15" fill="url(#cellGradient)" stroke="grey" stroke-width="2" />
  </g>
  <text x="300" y= "210" font-size="100" fill="black" stroke="white" stroke-width="2" font-family="Comic Sans MS, Segoe Print, Sans-Serif" text-anchor="middle" dominant-baseline="middle" transform = "rotate(-20, 300, 200)"> Data Grids! </text>
</svg>
