<svg xmlns="http://www.w3.org/2000/svg" viewBox="0 0 600 400" width="600" height="400">
  <defs>
    <svg id="icon" xmlns="http://www.w3.org/2000/svg" width="53.3333" height="53.3333" transform="translate(5,5)" viewBox="0 0 24 24" xml:space="preserve"><path d="M20.8 3.7c-.4-.2-.9-.1-1.2.2-2 1.6-4.8 1.6-6.8 0-2.3-1.9-5.6-2.3-8.3-1v-.4c0-.6-.5-1-1-1s-1 .4-1 1v18.8c0 .5.5 1 1 1h.1c.5 0 1-.5 1-1v-6.4c1-.7 2.1-1.2 3.4-1.3 1.2 0 2.4.4 3.4 1.2 2.9 2.3 7 2.3 9.8 0 .3-.2.4-.5.4-.9V4.7c0-.5-.3-.9-.8-1m-.3 10.2C18 16 14.4 16 11.9 14c-1.1-.9-2.5-1.4-4-1.4-1.2.1-2.3.5-3.4 1.1V4c2.5-1.4 5.5-1.1 7.7.6 2.4 1.9 5.7 1.9 8.1 0h.2l.1.1z" style="fill:#45993d"/><path d="m20.6 4.8-.1 9.1v.1c-2.5 2-6.1 2-8.6 0-1.1-.9-2.5-1.4-4-1.4-1.2.1-2.3.5-3.4 1.1V4c2.5-1.4 5.5-1.1 7.7.6 2.4 1.9 5.7 1.9 8.1 0h.2c0 .1.1.1.1.2" style="fill:#4cbf56"/></svg>
    
    <pattern id="flagPattern" x="0" y="0" width="200" height="200" patternUnits="userSpaceOnUse">
      <rect width="200" height="200" fill="#FFBF00" />
      <use href="#icon" transform="rotate(177, 33.3333, 33.3333)" x="0" y="0"/> 
      <use href="#icon" transform="rotate(120, 100, 33.3333)" x="66.6667" y="0"/>
      <use href="#icon" transform="rotate(31, 33.3333, 100)" x="0" y="66.6667"/>
      <use href="#icon" transform="rotate(128, 100, 100)" x="66.6667" y="66.6667"/>
      <use href="#icon" transform="rotate(318, 166.6667, 33.3333)" x="133.3333" y="0"/>
      <use href="#icon" transform="rotate(104, 166.6667, 100)" x="133.3333" y="66.6667"/>
      <use href="#icon" transform="rotate(13, 166.6667, 166.6667)" x="133.3333" y="133.3333"/>
      <use href="#icon" transform="rotate(273, 100, 166.6667)" x="66.6667" y="133.3333"/>
      <use href="#icon" transform="rotate(285, 33.3333, 166.6667)" x="0" y="133.3333"/>
    </pattern>
  </defs>

  <rect x="2.5" y="2.5" width="595" height="395" rx="40" ry="40" fill="url(#flagPattern)" stroke="gray" stroke-width="5"/>
  
  <text x="300" y= "150" font-family="Comic Sans MS, Segoe Print, Sans-Serif" font-size="93" fill="black" stroke="#FFBF00" font-weight="600" stroke-width="2" text-anchor="middle" dominant-baseline="middle"> Green Flag </text>
  <text x="300" y= "270" font-family="Comic Sans MS, Segoe Print, Sans-Serif" font-size="93" fill="black" stroke="#FFBF00"  font-weight="600" stroke-width="2" text-anchor="middle" dominant-baseline="middle"> Utilities </text>
</svg>